<svg width="72" height="36" viewBox="0 0 72 36" fill="none" xmlns="http://www.w3.org/2000/svg">
<path fill-rule="evenodd" clip-rule="evenodd" d="M50.155 9.61312C50.1302 9.58877 50.0979 9.58076 50.0648 9.58076C50.0321 9.58076 50.0084 9.58877 49.9836 9.60495C49.9346 9.63763 49.9184 9.71036 49.943 9.76617C50.2443 10.3794 50.3989 11.0244 50.3989 11.6935C50.3989 13.9439 48.6389 15.9281 46.2846 16.3061C46.105 16.3466 45.9257 16.371 45.7466 16.371H41.6241V12.1778H46.7809C47.5796 12.1778 48.3046 12.6132 48.6631 13.3226C48.6798 13.3631 48.7205 13.3955 48.769 13.3955L48.7772 13.4037C48.8179 13.4037 48.859 13.3793 48.8834 13.3469C49.2579 12.8469 49.4375 12.186 49.4375 11.2665C49.4375 10.3714 49.0628 9.55649 48.3777 8.98417C47.6204 8.33879 46.4878 8 45.1193 8H41.6241H37.5502H37.4201V27.7201H41.6241V20.5807H45.9101C49.4131 20.5807 52.265 17.7582 52.265 14.2908C52.265 12.5166 51.4906 10.8063 50.155 9.61312ZM3 8.02434H15.6858V10.2252C15.6858 10.7333 15.4931 11.2411 15.1079 11.6288C14.7229 12.0162 14.2181 12.2101 13.7131 12.2101H7.21188V16.4035H14.4962V18.4375C14.4962 18.99 14.2867 19.5428 13.8678 19.9643C13.4486 20.3859 12.8996 20.5967 12.3504 20.5967H7.21188V27.5892H3.0082L3 8.02434ZM24.4815 24.8017C24.2942 24.8182 24.1147 24.8262 23.9355 24.8262C20.6116 24.8262 18.004 22.5763 18.004 19.7134L18.012 8.07084C18.012 8.07084 19.7157 7.66518 21.0783 8.9519C22.0171 9.83832 22.2166 11.0233 22.2166 12.0574V20.6488C22.2166 22.2533 23.1046 23.7535 24.5388 24.5514C24.5871 24.5838 24.6198 24.6404 24.6035 24.6972C24.5871 24.7534 24.5388 24.7936 24.4815 24.8017ZM32.0468 9.00979C30.9938 10.0962 30.971 11.3331 30.971 12.4739V19.0404C31.0036 20.6209 30.3686 22.1531 29.1948 23.3392C27.8181 24.7262 25.8382 25.5159 23.7519 25.5239H23.5158C22.0985 25.4841 20.729 25.0727 19.5642 24.3387C19.5395 24.3225 19.5153 24.3146 19.4908 24.3146C19.458 24.3146 19.4178 24.3305 19.3932 24.3549C19.3522 24.4037 19.3442 24.4756 19.3851 24.5241C21.0631 26.6776 23.6054 27.9113 26.3596 27.9113C31.2236 27.9113 35.1837 23.9917 35.1837 19.1775V8.06096C35.1837 8.06096 33.3517 7.66356 32.0468 9.00979ZM61.4415 24.432C59.1216 24.4436 56.8961 23.5085 55.2734 21.8403L53.0045 24.9479C54.8367 26.7612 57.5125 28 61.2348 28C66.4704 28 69 25.3503 69 21.8377C69 17.576 64.9291 16.6257 61.7299 15.9052C59.4903 15.387 57.8615 14.9844 57.8615 13.6884C57.8615 12.5369 58.8501 11.7299 60.7113 11.7299C62.6018 11.7299 64.6999 12.3952 66.2668 13.8352L68.5666 10.8444C66.6469 9.08886 64.0888 8.16619 61.0046 8.16619C56.4388 8.16619 53.6472 10.757 53.6472 13.9535C53.6472 18.1796 57.607 19.0791 60.754 19.794C60.7992 19.8043 60.8442 19.8145 60.889 19.8247C63.1278 20.3429 64.8149 20.8319 64.8149 22.2721C64.8149 23.366 63.7097 24.432 61.4415 24.432Z" fill="#155ED4"/>
</svg>
